<?xml version="1.0" encoding="utf-8"?>

<!DOCTYPE svg PUBLIC "-//W3C//DTD SVG 1.1//EN" "http://www.w3.org/Graphics/SVG/1.1/DTD/svg11.dtd">
<svg version="1.1" id="Layer_1" xmlns="http://www.w3.org/2000/svg" xmlns:xlink="http://www.w3.org/1999/xlink" x="0px" y="0px"
	 viewBox="-49.4194 -18.8847 2605.8389 995.7693" enable-background="new -49.4194 -18.8847 2605.8389 995.7693"
	 xml:space="preserve" fill="#ffffff">
<path d="M859.25,0h6.48c23.08,1,46.15,2.35,69.22,3.56c40.36,1.56,80.74,2.79,121.09,4.46c30.6899,1.71,61.4199,2.98,92.01,6.07
	c49.8999,4.73,99.72,12.18,148.0199,25.82c14.5901,3.77,28.7201,9,43,13.76c8.8601,1.54,17.91,1.85,26.8601,2.89
	c49.7,4.92,99.5399,8.48,149.1799,14.05c68.86,7.28,137.9,17.73,203.78,39.68c21.01,7.23,41.52,15.82,62.54,23.04
	c36.5299,12.69,73.74,23.56,111.59,31.57c10.61,2.28,21.16,4.92,31.89,6.61c14.63,2.41,29.1699,5.48,43.9199,7.18
	c11.05,1.38,22.0801,2.96,33.15,4.21c13.38,1.14,26.77,2.28,40.16,3.35c12.9,0.61,25.8199,1.01,38.7301,1.55
	c75.0298,1.16,150.7698-6.36,222.7-28.46c7.78-2.12,15.28-5.11,22.8999-7.75c9.05-3.11,17.98-7.05,27.6301-7.86
	c14.95-1.31,29.8699,3.02,42.97,10.04c12.5698,6.57,24.02,15.06,34.99,24.01c24.49,19.18,47.28,40.96,74.9399,55.67v1.43
	c-14.9099-0.3-29.1899-5.21-43.3701-9.31c-15.8499-4.58-31.5298-9.75-47.6199-13.44c-9.8801-1.87-20.0801-4.17-30.1001-1.91
	c-33.5498,5.29-64.2998,21.01-92.9299,38.64c-40.48,25.12-77.6599,55.27-119.01,79.01c-17.53,10.22-36.3599,17.86-54.8799,26.02
	c-81.2401,34.59-165.2101,63.94-252.2201,79.93c-51.28,9.24-103.63,13.74-155.6899,10.01c-11.1901-1.19-22.4501-1.8-33.5701-3.57
	c-21.97-3.17-43.62-8.34-65.6899-10.78c-25.24-3.57-51.04-3.13-76.0801,1.71c-20.0499,3.67-39.88,8.44-59.83,12.62
	c21.04,16.24,43.75,30.7,62.05,50.18c14.4399,15.62,21.24,36.14,29.7799,55.17c13.28,15.63,23.15,33.7,33.91,51.07
	c9.5,15.47,17.97,31.62,28.74,46.26c3.21,4.75,8.33,7.63,12.09,11.88c13.7101,14.34,21.78,33.06,27.11,51.93
	c9.5901,30.56,14.1801,62.83,28.13,91.92c1.51,3.41,4.26,6.69,3.55,10.66c-2.02,21.72-3.09,43.54-5.9301,65.17
	c-2.8999,18.92-8.1399,38.5-20.98,53.23c-15.3999,10.0699-32.62,19.02-51.3999,19.64c-3.66,0.32-7.3501-0.88-10.9501-0.28
	c-12.37,5.7-26.34,4.8-39.47,7.36h-2.35c-3.29-1.67-2.5901-5.58-2.6001-8.64c-4.0699,0.05-8.1899-0.04-12.1499,1.02
	c-4.78,1.26-8.98,4.16-12.4501,7.62h-1.14c1.9-4.67,4.14-9.24,7.54-13.03c-7.96,2.98-17.3199,2.07-23.8099-3.7
	c-8.9701,5.94-20.8,5.6-30.41,1.43c-3.8-1.54-7.41-4.11-8.5601-8.24c-10.46,0.54-18,9.06-27.09,13.28c-0.99-3.43,1.3-6.43,2.88-9.26
	c4.91-7.76,10.61-15.3,18.12-20.74c2.59-2.22,6.04-2.84,9.3-1.9c9.12-8.78,21.45-14.17,33.99-15.57c5.84-0.93,11.38,1.97,17.21,1.6
	c9.26-0.42,18.13-3.63,26.5-7.43c5.34-2.38,8.22-7.78,11.1801-12.51c4.99-9.41,10.2-19.15,11.1499-29.94
	c1.05-9.33-0.8199-18.62-1.6-27.89c-1.12-9.09-1.4-18.35-3.77-27.24c-2.51-9.68-6.89-18.76-11.9099-27.36
	c-6.1001-10.62-12.16-21.26-18.2001-31.9c-5.6799-9.84-10.86-20.05-18.14-28.83c-22.6899-27.79-54.59-46-87.0599-60.06
	c-49.66-20.97-102.36-33.06-154.23-47.13c-7.75-1.44-14.52-5.63-21.37-9.28c-34.1901-19.39-63.1901-46.85-87.86-77.21
	c-3.3401-4.08-6.3101-8.44-9.5601-12.59c-11.5699,4.65-24.12,5.35-36.28,7.46c-8.71,1.13-17.2899,3.12-25.61,5.92
	c9.7001,16.11,17.64,33.42,22.28,51.69c1.97,8.29,3.1,16.85,2.58,25.38c-0.39,9.46-4.86,18.44-3.64,28.01
	c1.5601,15.85,9.4701,30.22,18.17,43.24c10.51,16.58,22.89,31.86,34.08,47.97c4.8101,7.04,9.42,14.29,12.8401,22.13
	c2.1499,4.94,3.7,10.28,3.4199,15.73c-0.38,8.84-3.97,17.15-8.26,24.75c-11.0399,18.42-25.6799,34.25-39.6499,50.43
	c-6.1901,6.78-11.2101,14.65-18.2301,20.64c-3.08,2.7401-7.5,5.37-7.35,10.06c-0.15,8.86-1.2899,17.78-4.27,26.17
	c-0.7799,2.33-2.24,4.33-3.86,6.16c-0.9099-2.05-1.7899-4.11-2.65-6.17c-2.34,1.41-4.98,1.91-7.61,1.08
	c-1.26,3.38-2.72,7.22-6.27,8.78c-4.3799,1.78-8.7,3.7-12.6499,6.31c-17.02,9.67-37.24,8.7-56.12,10.03
	c-9.9,1.96-19.85,4.57-30.03,4.25c-7.33-0.18-14.28-2.79-20.98-5.51c-3.3799-1.78-1.09-5.82-0.2599-8.47
	c-8.25,0.02-14.25,6.5-21.64,9.17c1.11-4.47,4.36-7.9,6.59-11.81c2.7-4.12,5.8-9.11,11.13-9.81c3.77-0.35,6.75-2.83,10.09-4.35
	c-4.89-0.38-9.74-1.41-14.08-3.73c-2.61-1.54-5.66-0.49-8.45-0.25c-9.43,1.34-19.64,1.56-28.3-2.96c-5.44-2.69-9.09-7.7-13-12.14
	c-2.22-2.28-1.25-5.61-0.69-8.3199c-6.11-1.59-12.35,0.39-17.57,3.56c-4.12,1.98-7.87,5.24-12.57,5.5699
	c9.25-12.15,20.47-24.83,36.07-28.22c9.47-0.89,19.06-2.89,28.53-0.87c4.99,0.58,9.81,3.42,14.93,2.24
	c11.63-2.36,24.11-1.49,34.9,3.67c8.68-3.15,17.03-7.34,24.3-13.1c15.99-12.72,26.78-30.6,35.54-48.77
	c2.3999-6.16,6.08-11.9,7.4299-18.42c0.86-10.55-3.67-20.53-4.7-30.92c-0.9-8.88-2.92-17.68-6.89-25.71
	c-7.01-15.05-19.9-26-31.65-37.26c-30.09-27-62.05-51.82-92.18-78.78c-16.98-15.34-33.32-31.51-47.38-49.6
	c-11.92-15.73-22.39-33.16-26.78-52.59c-29.35-0.4-59.27,1.22-87.9-6.51c-3.83-0.77-7.74-3.54-11.69-1.89
	c-4.02,1.39-8.01,2.86-12.01,4.27c1.96,4.34,5.62,9.2,2.45,13.91c3.32,3.91,6.26,8.68,5.76,14.04c-0.06,4.88-3.02,9.05-3.95,13.72
	c0.79,4.19,3.82,7.74,7.67,9.51c4.03,1.86,7.99,3.91,11.46,6.72c-12.76,0.22-26.89,0.42-37.41-7.99c-1.94,0.41-3.95,1.33-5.92,0.66
	c-1.75-0.54-2.7-2.27-3.88-3.5c0.67,6.09,0.1,12.69-3.79,17.7c5.1,5.21,11.14,10.6299,12.12,18.29c0.82,5.44-1.73,10.46-4.13,15.14
	c-1.63,3.94,2.25,7.25,5.78,7.98c7.1299,1.73,14.48,2.44,21.65,4.04c-8.45,4.63-18.1,7.87-27.84,6.51
	c-8.83-1.11-16.96-5.38-23.81-10.92c-3.11-2.54-7.2401-4.1-9.2-7.81c-2.78-5.06-2.78-10.99-3.69-16.53
	c-0.7-4.2-3.65-7.47-5.91-10.91c-4.84-6.71-8.48-14.16-12.37-21.42c-1.66-3.19-3.14-6.53-3.72-10.09c-0.54-2.76,1.13-5.2,2.49-7.42
	c5.73-8.94,11.34-17.96,17.07-26.89c1.73-2.25,0.7-5.17,0.87-7.75c0.18-9.41,3.4-18.57,8.13-26.63
	c-17.98-0.31-36.04-4.59-51.74-13.5c-20.03-10.74-36.73-26.51-56.21-38.15c-20.84,7.19-43.69,6.86-64.82,1.11
	c-4.52-1.16-9.52-3.25-13.98-0.79c-11.14,6.12-17.17,18.8-28.98,23.94c-7.18,2.19-14.71,3.01-21.93,5.08
	c-11.76,2.8-24.74,6.22-36.33,1c-11.83-4.89-20.36-17.21-34-17.51c-8.57,13.11-15.94,27.14-26.27,39.01
	c-5.32,6.14-11.94,11.04-19.19,14.66c-37.89,19.84-75.99,39.36-112.73,61.27c-14.62,9.12-29.4,18.25-42.11,29.98
	c-11.87,10.57-22.84,22.6801-37.41,29.61c-10.92,5.57-23.12,7.65-35.05,9.88c-6.26,1.04-12.93,1.49-18.96-0.88
	c-4.01-1.58-7.99-3.29-11.64-5.58c-5.63-3.6-9.71-8.99-14.01-13.99c-3.67-4.55-6.95-9.41-10.12-14.33
	c2.83-5.24,5.74-10.51,7.49-16.24c0.92-2.27-0.63-4.47-1.17-6.63c-3.02-8.61-2.34-18.35,1.83-26.47c1.42,3.34,2.48,7.27,5.97,9.08
	c-0.28-4.27-1.13-8.54-0.62-12.82c0.36-4.12,2.07-7.94,3.65-11.7c1,3.19,1.48,6.82,3.9,9.34c1.71,1.84,4.46,1.11,6.68,1.24
	c-0.47-4.36-1.59-8.72-0.97-13.11c0.45-4.67,2.7-8.86,4.73-13c0.92,4.24,1.38,9.19,5.85,11.28c-1.84-4.5-1.35-9.3,0.7-13.61
	c2.09,2.66,3.8,5.72,6.7,7.61c-1.99-5.68-2.87-11.92-0.18-17.55c2.15,4.3,4.76,8.94,9.3,11.08c0.12-5.15,1.13-10.4-0.36-15.45
	c-4-15.52-5.81-31.47-7.89-47.33c-0.66-10.32-2.25-20.67-1.07-31.01c-0.51-3.78-4.48-5.54-7.55-6.98c-1.45,2.13-3.24,4.28-3.33,6.99
	c-0.23,4.74,1.05,9.39,1.77,14.04c-3.88-3.35-8.01-6.54-10.94-10.82c-2.57-3.39-4.07-7.39-5.79-11.24c-1.3,1.88-1.23,4.2-1.43,6.39
	c-4.27-1.78-7.72-5.14-9.4-9.47c-0.36,1.19-0.7,2.38-1.04,3.58c-2-1.08-4.25-1.89-5.85-3.57c-1.46-1.8-2.2-4.04-3.33-6.04
	c-3.31,3.35-1.78,8.62-2.17,12.84c-5.5-4.47-9.82-10.44-10.93-17.58c-3.15,3.87-2.68,8.99-1.87,13.58c-2.2-2-4.66-3.9-5.92-6.68
	c-1.63-3.19-1.71-6.84-2.25-10.3c-3.3,4.42-3.26,10.11-1.17,15.05c-3.1-1.98-6.54-3.52-9.21-6.1c-2.14-2.01-2.31-5.1-2.89-7.8
	c-2.98,3.09-4.48,7.11-4.22,11.41c-3.56-3.83-6.84-8.1-8.08-13.29c-0.53,2.84-0.96,5.71-1.28,8.58c-2.63-2.82-5.54-5.69-6.63-9.51
	c-0.81-3.19-0.01-6.48,0.42-9.66c-2.66-0.87-5.6-1.38-7.72-3.34c-3.59-3.47-5.47-8.36-6.01-13.26v-1.4
	c2.13-20.46,13.76-38.11,24-55.36c1.12-3.91,0.76-8.16,2.17-12.03c2.13-7.53,7.97-13.14,13.84-17.95
	c14.73-12.58,27.34-27.63,43.37-38.65c11.44-8.32,25.36-13.33,39.54-13.59c-0.87-3.83-0.2-7.73,1.71-11.13
	c1.65,0.05,3.3,0.09,4.95,0.13c-0.69-3.92-1.85-7.78-1.92-11.78c-0.07-3.44,1.16-6.71,2.34-9.89c1.67,0.49,3.35,0.98,5.03,1.48
	c-1.59-8.24-2.82-17.07,1.1-24.88c9.52,1.16,19.21,2.31,28.75,0.68c2.42-0.46,5.18-0.62,6.92-2.62
	c7.72-7.41,15.39-15.78,25.92-19.05c5.87-1.94,12.15-1.29,18.01,0.29c5.91-6.67,12.93-12.33,20.85-16.43
	c4.8-2.7,10.29-4.02,14.84-7.17c7.05-5.23,12.39-12.5,19.93-17.11c9.48-5.84,19.96-9.94,30.7-12.81c11.73-3.02,24-4.65,36.08-3.08
	c20.57,1.89,40.48,7.89,59.97,14.46c22.41,8.16,44.72,16.57,66.98,25.12c22.36,8.08,45.11,15.99,68.89,18.44
	c14.45,1.41,29.7401,0.43,42.7-6.71c7.51-4.3,14.38-9.6,21.56-14.41c48.46-32.72,99.96-61.89,155.72-80.17
	C787.92,6.98,823.47,0.44,859.25,0z"/>
</svg>
